# xmcd
# Track frame offsets:
# 150
# 9445
# 21797
# 32990
# 45267
# 57902
# 70742
# 84972
# 97292
# 111440
# 125720
# 136320
# 148625
# 159955
# 170900
# 185600
#
# Disc length: 2641 seconds
# Revision: 0
# Processed by: cddbd v1.4PL0 Copyright (c) Steve Scherf et al.
# Submitted via: VisiTrax 2.9.5.180 - For more info visit www.synapsa.com
#
DISCID=de0a4f10
DTITLE=Billy Walker - Anything your heart desires
DYEAR=1992
DGENRE=
TTITLE0=I taught her everything she knows
TTITLE1=Ramona
TTITLE2=Thinking about you babe
TTITLE3=Bear with me a little longer
TTITLE4=From the bottle to the bottom
TTITLE5=Sundown Mary
TTITLE6=Anything your heart desires
TTITLE7=In Del Rio
TTITLE8=Curtains on the window
TTITLE9=Darling days
TTITLE10=Smoky places
TTITLE11=T For Texas
TTITLE12=Invisible tears
TTITLE13=Wabash cannonball
TTITLE14=High Noon
TTITLE15=Love me now hurt me later
EXTD=
EXTT0=
EXTT1=
EXTT2=
EXTT3=
EXTT4=
EXTT5=
EXTT6=
EXTT7=
EXTT8=
EXTT9=
EXTT10=
EXTT11=
EXTT12=
EXTT13=
EXTT14=
EXTT15=
PLAYORDER=
